<svg width="7" height="12" viewBox="0 0 7 12" fill="none" xmlns="http://www.w3.org/2000/svg">
<path d="M1.28318 0.221294L6.28318 5.22129C6.3531 5.29097 6.40857 5.37377 6.44643 5.46493C6.48428 5.55609 6.50377 5.65383 6.50377 5.75254C6.50377 5.85125 6.48428 5.94899 6.44643 6.04016C6.40857 6.13132 6.3531 6.21412 6.28318 6.28379L1.28318 11.2838C1.14228 11.4247 0.951183 11.5038 0.751926 11.5038C0.552669 11.5038 0.361572 11.4247 0.220676 11.2838C0.0797797 11.1429 0.000625136 10.9518 0.000625133 10.7525C0.000625131 10.5533 0.0797797 10.3622 0.220676 10.2213L4.69005 5.75192L0.220051 1.28255C0.079155 1.14165 0 0.950552 0 0.751295C0 0.552038 0.079155 0.360941 0.220051 0.220045C0.360948 0.0791488 0.552044 -7.62939e-06 0.751301 -7.62939e-06C0.950559 -7.62939e-06 1.14165 0.0791488 1.28255 0.220045L1.28318 0.221294Z" fill="black"/>
</svg>
