<svg width="1440" height="710" viewBox="0 0 1440 710" fill="none" xmlns="http://www.w3.org/2000/svg">
<path d="M170.653 90.2287C174.665 107.245 170.638 124.017 157.714 133.679C139.781 147.329 123.592 157.707 110.106 167.405C96.5675 177.06 85.7134 186.043 77.1889 195.75C68.609 205.405 62.3546 215.774 56.7536 227.048C51.0921 238.283 46.0851 250.401 38.7367 262.421C31.4386 275.966 10.8593 279.931 -8.7485 275.846C-22.4494 272.996 -32.6273 268.392 -39.463 262.547C-46.32 256.602 -49.8307 249.426 -50.988 239.205C-52.608 221.925 -46.9388 202.656 -29.7134 198.269C-4.35439 190.873 18.8247 182.72 31.2646 163.559C44.023 144.957 46.0554 115.351 36.5067 77.8255C29.9525 55.0658 48.285 38.2128 70.4236 27.1544C98.459 13.9348 113.142 15.1281 142.294 42.9115C155.099 55.772 166.896 73.123 170.653 90.2287Z" fill="#B80F66"/>
<path d="M1454.43 671.041C1437.18 673.86 1420.73 668.676 1411.99 655.11C1399.62 636.271 1390.39 619.399 1381.66 605.27C1372.97 591.093 1364.76 579.64 1355.67 570.461C1346.64 561.23 1336.73 554.269 1325.87 547.897C1315.06 541.467 1303.32 535.629 1291.84 527.462C1278.83 519.239 1276.31 498.434 1281.75 479.158C1285.55 465.688 1290.85 455.856 1297.16 449.443C1303.56 443.017 1310.97 440.014 1321.24 439.571C1338.59 439.157 1357.42 446.153 1360.6 463.642C1366.21 489.455 1372.73 513.145 1390.98 526.888C1408.65 540.91 1438.04 544.998 1476.14 538.084C1499.3 533.129 1514.84 552.59 1524.33 575.445C1535.57 604.332 1533.35 618.897 1503.61 646.044C1489.89 657.923 1471.76 668.484 1454.43 671.041Z" fill="#B80F66"/>
</svg>
