<svg width="1081" height="673" viewBox="0 0 1081 673" fill="none" xmlns="http://www.w3.org/2000/svg">
<path d="M158.163 18.9097C172.604 26.682 179.042 44.475 173.391 58.8632C170.876 64.9803 166.288 69.4258 160.455 71.9158C143.512 79.1495 130.146 89.2169 122.434 103.099C114.633 116.921 112.471 134.559 115.956 155.421C116.9 160.492 116.494 165.635 114.552 170.541C107.854 186.676 87.5465 195.222 70.2186 190.595C52.9494 185.981 41.7163 166.884 45.7687 147.557C46.7262 143.386 48.417 139.629 50.7144 136.416C62.6606 119.142 62.5374 112.971 52.7307 95.0855C48.6351 87.5304 47.4509 78.5575 50.4922 70.3631C54.7629 58.7554 66.3268 52.1644 78.6884 52.4215C101.381 52.5443 106.668 49.0114 115.813 30.6643C115.916 30.4564 116.029 30.2506 116.135 30.0486C124.111 15.6968 143.725 11.1277 158.163 18.9097Z" fill="#040404"/>
<path d="M884.619 649.429C867.478 639.255 860.525 617.32 868.07 600.136C871.415 592.836 877.193 587.672 884.387 584.946C905.283 577.026 921.977 565.482 931.997 549.018C942.123 532.632 945.593 511.324 942.368 485.812C941.467 479.606 942.206 473.382 944.798 467.523C953.696 448.272 978.736 438.929 999.529 445.432C1020.25 451.915 1032.96 475.678 1027.11 498.941C1025.75 503.956 1023.52 508.433 1020.58 512.218C1005.26 532.584 1005.11 540.084 1016.15 562.303C1020.75 571.686 1021.76 582.643 1017.68 592.438C1011.94 606.316 997.597 613.73 982.617 612.787C955.101 611.481 948.519 615.502 936.546 637.315C936.411 637.562 936.265 637.806 936.126 638.046C925.763 655.067 901.756 659.615 884.619 649.429Z" fill="#040404"/>
</svg>
