<svg width="17" height="32" viewBox="0 0 17 32" fill="none" xmlns="http://www.w3.org/2000/svg">
<path d="M16.6604 13.9255L16.2605 17.1363C16.1929 17.6726 15.7387 18.0761 15.1999 18.0761H9.9996V31.5003C9.45118 31.5498 8.89551 31.5752 8.33381 31.5752C7.07751 31.5752 5.85142 31.4496 4.6664 31.2104V18.0761H0.666803C0.29958 18.0761 0 17.7753 0 17.4069V13.3892C0 13.0207 0.29958 12.72 0.666803 12.72H4.6664V6.69458C4.6664 2.99698 7.6513 0 11.3344 0H16.0008C16.368 0 16.6676 0.300783 16.6676 0.669214V4.68693C16.6676 5.05536 16.368 5.35615 16.0008 5.35615H12.6668C11.1943 5.35615 10.0008 6.55446 10.0008 8.03422V12.7212H15.601C16.2436 12.7212 16.7401 13.2865 16.6616 13.9267L16.6604 13.9255Z" fill="white"/>
</svg>
