<?xml version="1.0" encoding="UTF-8"?><svg id="Camada_2" xmlns="http://www.w3.org/2000/svg" viewBox="0 0 1443.89 847.5"><defs><style>.cls-1{fill:none;stroke:#040404;stroke-width:2px;}.cls-2{fill:#ffc3da;}</style></defs><g id="Camada_1-2"><path class="cls-2" d="M1034.67,821.06c346.36,38.58,476.54-252.97,361.16-582.93C1312.76.54,838.31-51.37,709.38,47.37c-128.94,98.74-256.4-4.01-456.96,64.61C-201.28,267.18,23.65,912.4,400.94,791.54c206.28-66.09,475.85,19.77,633.73,29.52Z"/><path class="cls-1" d="M23.02,578.01C-.26,495.41,2.37,404.23,39.07,324.05c36.7-80.16,107.49-149.41,220.67-188.12,100.06-34.23,181.87-25.72,254.95-20.95,73.07,4.77,137.51,5.81,202.29-43.81,32.01-24.51,85.6-39.76,149.45-45.06,63.8-5.3,137.7-.65,210.17,14.5,72.47,15.15,143.48,40.79,201.53,77.45,58.05,36.66,103.09,84.29,123.76,143.41,57.63,164.81,53.88,319.87-7.36,428.85-61.18,108.9-179.89,172.01-352.75,152.76h-.03s-.02,0-.02,0c-39.41-2.43-85.82-9.62-136.52-18.01-50.69-8.39-105.66-17.97-162.13-25.18-112.94-14.43-232.09-19.39-335.45,13.72-94.02,30.12-178.5,12.51-245.31-33.24-66.83-45.77-116.02-119.73-139.31-202.34Z"/></g></svg>