<svg width="1437" height="825" viewBox="0 0 1437 825" fill="none" xmlns="http://www.w3.org/2000/svg">
<path d="M1420.68 269.49C1443.97 352.093 1441.34 443.273 1404.63 523.454C1367.93 603.616 1297.14 672.861 1183.96 711.578C1083.9 745.81 1002.09 737.301 929.013 732.531C855.945 727.762 791.503 726.723 726.718 776.337C694.712 800.848 641.115 816.095 577.272 821.397C513.466 826.695 439.572 822.047 367.102 806.898C294.63 791.749 223.626 766.108 165.575 729.453C107.523 692.797 62.4825 645.164 41.8113 586.044C-15.8188 421.234 -12.0637 266.176 49.1683 157.197C110.356 48.296 229.067 -14.8172 401.923 4.43605L401.948 4.43821L401.972 4.43939C441.385 6.87416 487.788 14.0609 538.491 22.4497C589.177 30.8357 644.146 40.4212 700.626 47.6352C813.57 62.0611 932.713 67.0284 1036.07 33.9138C1130.09 3.7956 1214.57 21.4036 1281.38 67.1541C1348.21 112.922 1397.4 186.882 1420.68 269.49Z" stroke="#040404" stroke-width="2"/>
</svg>
