<svg width="26" height="26" viewBox="0 0 26 26" fill="none" xmlns="http://www.w3.org/2000/svg">
<path d="M19.1005 0H6.07732C2.72157 0 0 2.72156 0 6.07731V19.1005C0 22.4562 2.72157 25.1778 6.07732 25.1778H19.1005C22.4562 25.1778 25.1778 22.4562 25.1778 19.1005V6.07731C25.1778 2.72156 22.4562 0 19.1005 0ZM23.0071 18.6656C23.0071 21.0622 21.0622 23.007 18.6656 23.007H6.51098C4.11436 23.007 2.16953 21.0622 2.16953 18.6656V6.51097C2.16953 4.11435 4.11436 2.16952 6.51098 2.16952H18.6656C21.0622 2.16952 23.0071 4.11435 23.0071 6.51097V18.6656Z" fill="white"/>
<path d="M12.6016 6.07733C9.00783 6.07733 6.09058 8.99458 6.09058 12.5883C6.09058 16.182 9.00783 19.0993 12.6016 19.0993C16.1953 19.0993 19.1125 16.182 19.1125 12.5883C19.1125 8.99458 16.1953 6.07733 12.6016 6.07733ZM12.6016 16.9298C10.2098 16.9298 8.26009 14.9801 8.26009 12.5883C8.26009 10.1965 10.2098 8.24685 12.6016 8.24685C14.9933 8.24685 16.943 10.1965 16.943 12.5883C16.943 14.9801 14.9933 16.9298 12.6016 16.9298Z" fill="white"/>
<path d="M19.5476 6.94594C18.83 6.94594 18.2454 6.36128 18.2454 5.64375C18.2454 4.92621 18.83 4.34155 19.5476 4.34155C20.2651 4.34155 20.8497 4.92621 20.8497 5.64375C20.8497 6.36128 20.2651 6.94594 19.5476 6.94594Z" fill="white"/>
</svg>
