<svg width="1277" height="1007" viewBox="0 0 1277 1007" fill="none" xmlns="http://www.w3.org/2000/svg">
<path d="M1174.12 274.086C1117.07 287.148 1082.15 287.849 1052.62 270.146C1023.1 251.904 998.921 215.149 963.461 140.614C932.697 73.8506 872.463 45.4614 810.287 65.8088C797.118 70.2345 784.596 76.6572 772.83 84.8609C686.42 138.941 665.209 137.807 582.739 75.9555C562.553 59.4401 539.615 48.6457 515.003 45.2995C484.185 41.1437 455.147 49.2934 430.104 67.1041C430.104 67.1041 429.672 67.374 429.457 67.5359C429.349 67.5899 429.295 67.6439 429.187 67.6978C361.397 114.761 319.191 129.064 280.708 123.829C242.226 117.676 207.36 91.9312 155.06 37.9593C150.905 33.5336 146.641 29.3778 142.215 25.5997C90.725 -18.1175 35.0253 -6.29765 9.98206 64.5675C-5.02232 108.285 -3.07942 166.304 15.5951 217.308C72.9679 366.81 83.2963 395.126 68.9935 572.424C60.0881 663.528 117.731 777.733 214.072 815.999C222.599 819.399 236.073 817.098 244.547 819.149C356.54 845.433 422.602 849.805 482.242 872.095C542.367 892.658 596.124 931.14 694.678 985.976C731.595 1006.38 778.767 1013.29 828.152 1000.66C897.831 983.061 972.178 954.816 1000.51 895.771C1045.1 803.533 1069.38 750.857 1100.09 709.19C1130.21 667.038 1166.8 636.004 1222.93 575.448C1282.14 512.031 1285.95 384.783 1263.12 323.633C1246.55 278.35 1212.38 264.048 1174.12 274.086Z" fill="#FFC3DA"/>
</svg>
