<svg width="24" height="24" viewBox="0 0 24 24" fill="none" xmlns="http://www.w3.org/2000/svg">
<path d="M3.0912 6.1824C4.79842 6.1824 6.18241 4.79842 6.18241 3.0912C6.18241 1.38397 4.79842 0 3.0912 0C1.38397 0 0 1.38397 0 3.0912C0 4.79842 1.38397 6.1824 3.0912 6.1824Z" fill="white"/>
<path d="M5.43593 8.24207H0.745375C0.617951 8.24207 0.514648 8.34537 0.514648 8.47279V23.4661C0.514648 23.5936 0.617951 23.6969 0.745375 23.6969H5.43593C5.56335 23.6969 5.66666 23.5936 5.66666 23.4661V8.47279C5.66666 8.34537 5.56335 8.24207 5.43593 8.24207Z" fill="white"/>
<path d="M23.1833 13.9099V22.6677C23.1833 23.2343 22.7195 23.6981 22.1529 23.6981H19.0617C18.4952 23.6981 18.0313 23.2343 18.0313 22.6677V15.4549C18.0313 14.0332 16.8777 12.8795 15.4559 12.8795C14.0341 12.8795 12.8805 14.0332 12.8805 15.4549V22.6677C12.8805 23.2343 12.4167 23.6981 11.8501 23.6981H8.75892C8.19238 23.6981 7.72852 23.2343 7.72852 22.6677V9.27253C7.72852 8.70599 8.19238 8.24212 8.75892 8.24212H11.8501C12.4167 8.24212 12.8805 8.70599 12.8805 9.27253V9.93209C13.9109 8.59728 15.6166 7.72754 17.5167 7.72754C20.3603 7.72754 23.1833 9.78833 23.1833 13.9099Z" fill="white"/>
</svg>
