<?xml version="1.0" encoding="UTF-8"?><svg id="Camada_2" xmlns="http://www.w3.org/2000/svg" xmlns:xlink="http://www.w3.org/1999/xlink" viewBox="0 0 539.17 93.88"><defs><style>.cls-1{clip-path:url(#clippath-51);}.cls-2{clip-path:url(#clippath-34);}.cls-3{clip-path:url(#clippath-38);}.cls-4{clip-path:url(#clippath-21);}.cls-5{clip-path:url(#clippath-6);}.cls-6{clip-path:url(#clippath-7);}.cls-7{clip-path:url(#clippath-17);}.cls-8{clip-path:url(#clippath-31);}.cls-9{clip-path:url(#clippath-15);}.cls-10{clip-path:url(#clippath-33);}.cls-11{clip-path:url(#clippath-61);}.cls-12{clip-path:url(#clippath-18);}.cls-13{clip-path:url(#clippath-47);}.cls-14{clip-path:url(#clippath-4);}.cls-15{clip-path:url(#clippath-22);}.cls-16{clip-path:url(#clippath-23);}.cls-17{clip-path:url(#clippath-54);}.cls-18{clip-path:url(#clippath-9);}.cls-19{clip-path:url(#clippath-10);}.cls-20{clip-path:url(#clippath-42);}.cls-21{clip-path:url(#clippath-59);}.cls-22{clip-path:url(#clippath-43);}.cls-23{clip-path:url(#clippath-25);}.cls-24{clip-path:url(#clippath-27);}.cls-25{clip-path:url(#clippath-60);}.cls-26{clip-path:url(#clippath-11);}.cls-27{clip-path:url(#clippath-57);}.cls-28{fill:none;}.cls-29{clip-path:url(#clippath-36);}.cls-30{fill:#ec008c;}.cls-31{clip-path:url(#clippath-35);}.cls-32{clip-path:url(#clippath-48);}.cls-33{clip-path:url(#clippath-28);}.cls-34{clip-path:url(#clippath-1);}.cls-35{clip-path:url(#clippath-56);}.cls-36{clip-path:url(#clippath-45);}.cls-37{clip-path:url(#clippath-46);}.cls-38{clip-path:url(#clippath-40);}.cls-39{clip-path:url(#clippath-5);}.cls-40{clip-path:url(#clippath-20);}.cls-41{clip-path:url(#clippath-8);}.cls-42{clip-path:url(#clippath-52);}.cls-43{clip-path:url(#clippath-41);}.cls-44{clip-path:url(#clippath-3);}.cls-45{clip-path:url(#clippath-26);}.cls-46{clip-path:url(#clippath-12);}.cls-47{clip-path:url(#clippath-50);}.cls-48{fill:#e6007e;}.cls-49{clip-path:url(#clippath-14);}.cls-50{clip-path:url(#clippath-30);}.cls-51{clip-path:url(#clippath-19);}.cls-52{clip-path:url(#clippath-32);}.cls-53{clip-path:url(#clippath-55);}.cls-54{clip-path:url(#clippath-53);}.cls-55{clip-path:url(#clippath-39);}.cls-56{clip-path:url(#clippath-16);}.cls-57{clip-path:url(#clippath-2);}.cls-58{clip-path:url(#clippath-29);}.cls-59{clip-path:url(#clippath-49);}.cls-60{clip-path:url(#clippath-37);}.cls-61{clip-path:url(#clippath-58);}.cls-62{clip-path:url(#clippath-13);}.cls-63{clip-path:url(#clippath-24);}.cls-64{clip-path:url(#clippath);}.cls-65{clip-path:url(#clippath-44);}.cls-66{clip-path:url(#clippath-62);}</style><clipPath id="clippath"><rect class="cls-28" x="173.94" y="24.2" width="50.22" height="48.35"/></clipPath><clipPath id="clippath-1"><path class="cls-28" d="M203.66,24.32c-5.72,0-10.49,1.64-13.88,4.72v-3.63h-15.82v47.1h16.46v-25.56c0-2.87.95-9.51,9.75-9.51,5.27,0,7.43,3.27,7.43,11.24v23.82h16.46v-29.3c0-11.84-7.64-18.89-20.4-18.89Z"/></clipPath><clipPath id="clippath-2"><rect class="cls-28" x="172.77" y="23.21" width="52" height="49.33"/></clipPath><clipPath id="clippath-3"><rect class="cls-28" x="173.94" y="24.2" width="50.19" height="48.35"/></clipPath><clipPath id="clippath-4"><path class="cls-28" d="M203.66,24.32c-5.72,0-10.49,1.64-13.88,4.72v-3.63h-15.82v47.1h16.46v-25.56c0-2.87.95-9.51,9.75-9.51,5.27,0,7.43,3.27,7.43,11.24v23.82h16.46v-29.3c0-11.84-7.64-18.89-20.4-18.89Z"/></clipPath><clipPath id="clippath-5"><rect class="cls-28" x="226.1" y="24.55" width="51.47" height="49.33"/></clipPath><clipPath id="clippath-6"><path class="cls-28" d="M251.84,60.45c-6.19,0-11.22-5.03-11.22-11.22s5.03-11.22,11.22-11.22,11.22,5.03,11.22,11.22-5.03,11.22-11.22,11.22M269.85,31.36c-4.67-4.36-11.06-6.77-18.01-6.77s-13.33,2.4-18.01,6.77c-4.82,4.51-7.47,10.86-7.47,17.86s2.66,13.35,7.47,17.86c4.68,4.36,11.06,6.79,18.01,6.79s13.33-2.42,18.01-6.79c4.82-4.51,7.47-10.86,7.47-17.86s-2.66-13.36-7.47-17.86Z"/></clipPath><clipPath id="clippath-7"><rect class="cls-28" x="226.1" y="24.55" width="52" height="49.33"/></clipPath><clipPath id="clippath-8"><rect class="cls-28" x="226.1" y="24.55" width="51.47" height="49.33"/></clipPath><clipPath id="clippath-9"><path class="cls-28" d="M251.84,60.45c-6.19,0-11.22-5.03-11.22-11.22s5.03-11.22,11.22-11.22,11.22,5.03,11.22,11.22-5.03,11.22-11.22,11.22M269.85,31.36c-4.67-4.36-11.06-6.77-18.01-6.77s-13.33,2.4-18.01,6.77c-4.82,4.51-7.47,10.86-7.47,17.86s2.66,13.35,7.47,17.86c4.68,4.36,11.06,6.79,18.01,6.79s13.33-2.42,18.01-6.79c4.82-4.51,7.47-10.86,7.47-17.86s-2.66-13.36-7.47-17.86Z"/></clipPath><clipPath id="clippath-10"><rect class="cls-28" x="55.21" y="6.21" width="15.96" height="66.65"/></clipPath><clipPath id="clippath-11"><rect class="cls-28" x="54.1" y="5.88" width="17.33" height="68"/></clipPath><clipPath id="clippath-12"><rect class="cls-28" x="55.21" y="6.21" width="15.96" height="66.65"/></clipPath><clipPath id="clippath-13"><rect class="cls-28" x="73.5" y="23.74" width="44.29" height="50.14"/></clipPath><clipPath id="clippath-14"><path class="cls-28" d="M103.06,52.93h.67v.85c0,5.65-3.2,8.52-9.52,8.52-2.11,0-6.12-.88-6.12-4.18s5.03-5.2,14.97-5.2M115.04,32.53c-3.16-5.6-9.21-8.45-17.98-8.45-8.09,0-15.18,2.71-20,7.59l-1.14,1.16,8.09,8.09,1.16-1.09c2.82-2.66,6.71-4.18,10.7-4.18,2.49,0,8.21.62,8.49,6.22h-1.11c-5.65,0-12.86.26-18.65,2.4-7.21,2.66-10.86,7.59-10.86,14.64,0,4.63,1.97,8.52,5.67,11.25,3.2,2.37,7.52,3.68,12.12,3.68,5.17,0,9.58-1.61,12.83-4.63v3.54h13.26v-27.09c0-3.2,0-8.54-2.56-13.12h-.02Z"/></clipPath><clipPath id="clippath-15"><rect class="cls-28" x="72.77" y="23.21" width="45.33" height="50.67"/></clipPath><clipPath id="clippath-16"><rect class="cls-28" x="73.73" y="24.07" width="44.06" height="49.81"/></clipPath><clipPath id="clippath-17"><path class="cls-28" d="M103.06,52.93h.67v.85c0,5.65-3.2,8.52-9.52,8.52-2.11,0-6.12-.88-6.12-4.18s5.03-5.2,14.97-5.2M115.04,32.53c-3.16-5.6-9.21-8.45-17.98-8.45-8.09,0-15.18,2.71-20,7.59l-1.14,1.16,8.09,8.09,1.16-1.09c2.82-2.66,6.71-4.18,10.7-4.18,2.49,0,8.21.62,8.49,6.22h-1.11c-5.65,0-12.86.26-18.65,2.4-7.21,2.66-10.86,7.59-10.86,14.64,0,4.63,1.97,8.52,5.67,11.25,3.2,2.37,7.52,3.68,12.12,3.68,5.17,0,9.58-1.61,12.83-4.63v3.54h13.26v-27.09c0-3.2,0-8.54-2.56-13.12h-.02Z"/></clipPath><clipPath id="clippath-18"><rect class="cls-28" x="119.61" y="23.74" width="41.09" height="50.14"/></clipPath><clipPath id="clippath-19"><path class="cls-28" d="M154.45,46.52c-3.22-2.11-7.23-2.98-10.79-3.74-4.51-1-7.26-1.73-7.26-3.49,0-2.42,3.16-3.06,4.81-3.06,3.14,0,5.46,1.23,7.33,3.84l1.07,1.47,9.84-8.88-.88-1.21c-3.46-4.7-9.7-7.4-17.11-7.4-9.68,0-19.45,4.93-19.45,15.94s9.23,13.07,15.94,14.54c5.41,1.19,7.95,1.99,7.95,4.3s-3.37,3.44-5.74,3.44c-4.01,0-6.55-1.88-9.3-4.91l-1.11-1.23-9.78,9.16,1.07,1.18c4.44,4.96,10.46,7.38,18.48,7.38,5.34,0,10.22-1.21,13.81-3.39,4.56-2.8,6.95-7.09,6.95-12.46s-1.97-8.97-5.84-11.51v.02Z"/></clipPath><clipPath id="clippath-20"><rect class="cls-28" x="119.44" y="23.21" width="41.33" height="50.67"/></clipPath><clipPath id="clippath-21"><rect class="cls-28" x="119.81" y="23.74" width="40.64" height="50.14"/></clipPath><clipPath id="clippath-22"><path class="cls-28" d="M154.45,46.52c-3.22-2.11-7.23-2.98-10.79-3.74-4.51-1-7.26-1.73-7.26-3.49,0-2.42,3.16-3.06,4.81-3.06,3.14,0,5.46,1.23,7.33,3.84l1.07,1.47,9.84-8.88-.88-1.21c-3.46-4.7-9.7-7.4-17.11-7.4-9.68,0-19.45,4.93-19.45,15.94s9.23,13.07,15.94,14.54c5.41,1.19,7.95,1.99,7.95,4.3s-3.37,3.44-5.74,3.44c-4.01,0-6.55-1.88-9.3-4.91l-1.11-1.23-9.78,9.16,1.07,1.18c4.44,4.96,10.46,7.38,18.48,7.38,5.34,0,10.22-1.21,13.81-3.39,4.56-2.8,6.95-7.09,6.95-12.46s-1.97-8.97-5.84-11.51v.02Z"/></clipPath><clipPath id="clippath-23"><rect class="cls-28" y="20.09" width="52.5" height="53.79"/></clipPath><clipPath id="clippath-24"><path class="cls-28" d="M26.35,32.91c5.72,0,9.4,2.87,10.16,7.76h-20.29c1.31-4.96,4.91-7.76,10.13-7.76M37.67,56.75c-.19-.15-.33-.31-.45-.5-2.97,3.16-6.22,4.6-10.37,4.6-5.34,0-9.32-2.99-10.65-7.76h35.85v-5.03c0-8.43-2.28-15.42-6.6-20.29-4.24-4.79-10.27-7.31-17.41-7.31-7.52,0-14.43,2.61-19.51,7.33C3.32,32.71.45,39.57.45,47.19s2.87,14.47,8.09,19.36c5.06,4.72,11.98,7.33,19.51,7.33,8.23,0,15.11-3.02,20.45-8.97l-10.82-8.16Z"/></clipPath><clipPath id="clippath-25"><rect class="cls-28" x="-.56" y="19.21" width="53.33" height="54.67"/></clipPath><clipPath id="clippath-26"><rect class="cls-28" x=".13" y="20.23" width="52.16" height="53.65"/></clipPath><clipPath id="clippath-27"><path class="cls-28" d="M26.35,32.91c5.72,0,9.4,2.87,10.16,7.76h-20.29c1.31-4.96,4.91-7.76,10.13-7.76M37.67,56.75c-.19-.15-.33-.31-.45-.5-2.97,3.16-6.22,4.6-10.37,4.6-5.34,0-9.32-2.99-10.65-7.76h35.85v-5.03c0-8.43-2.28-15.42-6.6-20.29-4.24-4.79-10.27-7.31-17.41-7.31-7.52,0-14.43,2.61-19.51,7.33C3.32,32.71.45,39.57.45,47.19s2.87,14.47,8.09,19.36c5.06,4.72,11.98,7.33,19.51,7.33,8.23,0,15.11-3.02,20.45-8.97l-10.82-8.16Z"/></clipPath><clipPath id="clippath-28"><rect class="cls-28" x="498.54" y="24.55" width="31.96" height="48.5"/></clipPath><clipPath id="clippath-29"><path class="cls-28" d="M529.05,25.27c-1.14-.33-2.68-.71-4.36-.71-4.55,0-8.61,1.71-11.53,4.72v-3.61h-14.21v47.1h14.21v-25.1c0-1.09.36-3.46,1.76-5.51,1.73-2.61,4.58-3.91,8.43-3.91,1.49,0,3.04.31,4.91.78l2.02.5v-13.93l-1.21-.33Z"/></clipPath><clipPath id="clippath-30"><rect class="cls-28" x="498.1" y="24.55" width="33.33" height="49.33"/></clipPath><clipPath id="clippath-31"><rect class="cls-28" x="498.69" y="24.55" width="31.68" height="48.48"/></clipPath><clipPath id="clippath-32"><path class="cls-28" d="M529.05,25.27c-1.14-.33-2.68-.71-4.36-.71-4.55,0-8.61,1.71-11.53,4.72v-3.61h-14.21v47.1h14.21v-25.1c0-1.09.36-3.46,1.76-5.51,1.73-2.61,4.58-3.91,8.43-3.91,1.49,0,3.04.31,4.91.78l2.02.5v-13.93l-1.21-.33Z"/></clipPath><clipPath id="clippath-33"><rect class="cls-28" x="290.81" y="24.55" width="51.13" height="69.33"/></clipPath><clipPath id="clippath-34"><path class="cls-28" d="M317.54,60.99c-6.19,0-11.22-5.03-11.22-11.22s5.03-11.22,11.22-11.22,11.22,5.03,11.22,11.22-5.03,11.22-11.22,11.22M335.59,31.77c-4.22-4.7-10.16-7.19-17.11-7.19-5.45,0-10.22,1.76-13.61,4.96v-3.87h-13.67v67.93h14.21v-24.32c3.58,3.04,8.11,4.58,13.55,4.58,6.46,0,12.32-2.56,16.49-7.19,4.08-4.51,6.31-10.72,6.31-17.46s-2.18-13.05-6.17-17.46v.02Z"/></clipPath><clipPath id="clippath-35"><rect class="cls-28" x="290.1" y="24.55" width="52" height="69.33"/></clipPath><clipPath id="clippath-36"><rect class="cls-28" x="291.01" y="24.55" width="50.88" height="69.28"/></clipPath><clipPath id="clippath-37"><path class="cls-28" d="M317.54,60.99c-6.19,0-11.22-5.03-11.22-11.22s5.03-11.22,11.22-11.22,11.22,5.03,11.22,11.22-5.03,11.22-11.22,11.22M335.59,31.77c-4.22-4.7-10.16-7.19-17.11-7.19-5.45,0-10.22,1.76-13.61,4.96v-3.87h-13.67v67.93h14.21v-24.32c3.58,3.04,8.11,4.58,13.55,4.58,6.46,0,12.32-2.56,16.49-7.19,4.08-4.51,6.31-10.72,6.31-17.46s-2.18-13.05-6.17-17.46v.02Z"/></clipPath><clipPath id="clippath-38"><rect class="cls-28" x="395.82" width="50.67" height="73.88"/></clipPath><clipPath id="clippath-39"><path class="cls-28" d="M421.45,60.99c-6.19,0-11.22-5.03-11.22-11.22s5.03-11.22,11.22-11.22,11.22,5.03,11.22,11.22-5.03,11.22-11.22,11.22M432.25.45v28.71c-3.58-3.04-8.11-4.58-13.55-4.58-6.45,0-12.31,2.56-16.52,7.19-4.08,4.51-6.31,10.72-6.31,17.46s2.18,13.05,6.17,17.46c4.24,4.7,10.16,7.19,17.1,7.19,5.46,0,10.23-1.78,13.65-4.96v3.86h13.67V.45h-14.21Z"/></clipPath><clipPath id="clippath-40"><rect class="cls-28" x="395.44" y="-.79" width="52" height="74.67"/></clipPath><clipPath id="clippath-41"><rect class="cls-28" x="395.82" y=".39" width="50.67" height="73.49"/></clipPath><clipPath id="clippath-42"><path class="cls-28" d="M421.45,60.99c-6.19,0-11.22-5.03-11.22-11.22s5.03-11.22,11.22-11.22,11.22,5.03,11.22,11.22-5.03,11.22-11.22,11.22M432.25.45v28.71c-3.58-3.04-8.11-4.58-13.55-4.58-6.45,0-12.31,2.56-16.52,7.19-4.08,4.51-6.31,10.72-6.31,17.46s2.18,13.05,6.17,17.46c4.24,4.7,10.16,7.19,17.1,7.19,5.46,0,10.23-1.78,13.65-4.96v3.86h13.67V.45h-14.21Z"/></clipPath><clipPath id="clippath-43"><rect class="cls-28" x="521.36" y="55.24" width="17.8" height="17.81"/></clipPath><clipPath id="clippath-44"><path class="cls-28" d="M530.23,55.52c4.79,0,8.71,3.92,8.71,8.71s-3.92,8.71-8.71,8.71-8.71-3.92-8.71-8.71,3.92-8.71,8.71-8.71Z"/></clipPath><clipPath id="clippath-45"><rect class="cls-28" x="520.77" y="55.21" width="18.67" height="18.67"/></clipPath><clipPath id="clippath-46"><rect class="cls-28" x="521.41" y="55.43" width="17.6" height="17.6"/></clipPath><clipPath id="clippath-47"><path class="cls-28" d="M530.23,55.52c4.79,0,8.71,3.92,8.71,8.71s-3.92,8.71-8.71,8.71-8.71-3.92-8.71-8.71,3.92-8.71,8.71-8.71Z"/></clipPath><clipPath id="clippath-48"><rect class="cls-28" x="448.78" y="24.55" width="47.94" height="49.33"/></clipPath><clipPath id="clippath-49"><path class="cls-28" d="M472.8,36.04c5.27,0,8.68,2.64,9.4,7.17h-18.74c1.21-4.58,4.53-7.17,9.37-7.17M482.97,57.44c-2.78,3.04-5.81,4.39-9.7,4.39-4.91,0-8.61-2.76-9.82-7.17h33.1v-4.62c0-7.76-2.11-14.26-6.1-18.72-3.94-4.42-9.49-6.74-16.08-6.74-6.95,0-13.34,2.4-18.01,6.79-4.82,4.51-7.47,10.86-7.47,17.86s2.66,13.35,7.47,17.86c4.67,4.36,11.06,6.79,18.01,6.79,7.71,0,14.14-2.87,19.1-8.52l-10.49-7.92Z"/></clipPath><clipPath id="clippath-50"><rect class="cls-28" x="448.77" y="24.55" width="48" height="49.33"/></clipPath><clipPath id="clippath-51"><rect class="cls-28" x="448.78" y="24.55" width="47.94" height="49.33"/></clipPath><clipPath id="clippath-52"><path class="cls-28" d="M472.8,36.04c5.27,0,8.68,2.64,9.4,7.17h-18.74c1.21-4.58,4.53-7.17,9.37-7.17M482.97,57.44c-2.78,3.04-5.81,4.39-9.7,4.39-4.91,0-8.61-2.76-9.82-7.17h33.1v-4.62c0-7.76-2.11-14.26-6.1-18.72-3.94-4.42-9.49-6.74-16.08-6.74-6.95,0-13.34,2.4-18.01,6.79-4.82,4.51-7.47,10.86-7.47,17.86s2.66,13.35,7.47,17.86c4.67,4.36,11.06,6.79,18.01,6.79,7.71,0,14.14-2.87,19.1-8.52l-10.49-7.92Z"/></clipPath><clipPath id="clippath-53"><rect class="cls-28" x="358.38" y="39.26" width="21.06" height="21"/></clipPath><clipPath id="clippath-54"><path class="cls-28" d="M369.09,39.45c5.69,0,10.32,4.62,10.32,10.32s-4.62,10.32-10.32,10.32-10.32-4.62-10.32-10.32,4.63-10.32,10.32-10.32Z"/></clipPath><clipPath id="clippath-55"><rect class="cls-28" x="358.1" y="39.21" width="21.33" height="21.33"/></clipPath><clipPath id="clippath-56"><rect class="cls-28" x="358.53" y="39.43" width="20.91" height="20.8"/></clipPath><clipPath id="clippath-57"><path class="cls-28" d="M369.09,39.45c5.69,0,10.32,4.62,10.32,10.32s-4.62,10.32-10.32,10.32-10.32-4.62-10.32-10.32,4.63-10.32,10.32-10.32Z"/></clipPath><clipPath id="clippath-58"><rect class="cls-28" x="339.2" y="18.72" width="59.81" height="59.81"/></clipPath><clipPath id="clippath-59"><path class="cls-28" d="M387.89,33.38l-2.76,8.4c1.21,2.4,1.88,5.15,1.88,8,0,9.92-8.04,17.96-17.96,17.96s-17.96-8.04-17.96-17.96,8.05-17.96,17.96-17.96c3.25,0,6.31.85,8.97,2.4l8.85-1.92c.31-.05.61.05.81.26.21.27.31.55.21.85M369.09,19c-16.37,0-29.68,13.31-29.68,29.68s13.31,29.68,29.68,29.68,29.68-13.31,29.68-29.68-13.31-29.68-29.68-29.68Z"/></clipPath><clipPath id="clippath-60"><rect class="cls-28" x="338.1" y="17.88" width="61.33" height="61.33"/></clipPath><clipPath id="clippath-61"><rect class="cls-28" x="339.33" y="18.95" width="59.52" height="59.52"/></clipPath><clipPath id="clippath-62"><path class="cls-28" d="M387.89,33.38l-2.76,8.4c1.21,2.4,1.88,5.15,1.88,8,0,9.92-8.04,17.96-17.96,17.96s-17.96-8.04-17.96-17.96,8.05-17.96,17.96-17.96c3.25,0,6.31.85,8.97,2.4l8.85-1.92c.31-.05.61.05.81.26.21.27.31.55.21.85M369.09,19c-16.37,0-29.68,13.31-29.68,29.68s13.31,29.68,29.68,29.68,29.68-13.31,29.68-29.68-13.31-29.68-29.68-29.68Z"/></clipPath></defs><g id="Camada_1-2"><g class="cls-64"><g class="cls-34"><g class="cls-57"><g class="cls-44"><g class="cls-14"><rect x="-661.63" y="-993.05" width="2764.8" height="1555.2"/></g></g></g></g></g><g class="cls-39"><g class="cls-5"><g class="cls-6"><g class="cls-41"><g class="cls-18"><rect x="-661.63" y="-993.05" width="2764.8" height="1555.2"/></g></g></g></g></g><g class="cls-19"><g class="cls-26"><g class="cls-46"><rect x="-661.63" y="-993.05" width="2764.8" height="1555.2"/></g></g></g><g class="cls-62"><g class="cls-49"><g class="cls-9"><g class="cls-56"><g class="cls-7"><rect x="-661.63" y="-993.05" width="2764.8" height="1555.2"/></g></g></g></g></g><g class="cls-12"><g class="cls-51"><g class="cls-40"><g class="cls-4"><g class="cls-15"><rect x="-661.63" y="-993.05" width="2764.8" height="1555.2"/></g></g></g></g></g><g class="cls-16"><g class="cls-63"><g class="cls-23"><g class="cls-45"><g class="cls-24"><rect x="-661.63" y="-993.05" width="2764.8" height="1555.2"/></g></g></g></g></g><g class="cls-33"><g class="cls-58"><g class="cls-50"><g class="cls-8"><g class="cls-52"><rect x="-661.63" y="-993.05" width="2764.8" height="1555.2"/></g></g></g></g></g><g class="cls-10"><g class="cls-2"><g class="cls-31"><g class="cls-29"><g class="cls-60"><rect x="-661.63" y="-993.05" width="2764.8" height="1555.2"/></g></g></g></g></g><g class="cls-3"><g class="cls-55"><g class="cls-38"><g class="cls-43"><g class="cls-20"><rect x="-661.63" y="-993.05" width="2764.8" height="1555.2"/></g></g></g></g></g><g class="cls-22"><g class="cls-65"><g class="cls-36"><g class="cls-37"><g class="cls-13"><rect x="-661.63" y="-993.05" width="2764.8" height="1555.2"/></g></g></g></g></g><g class="cls-32"><g class="cls-59"><g class="cls-47"><g class="cls-1"><g class="cls-42"><rect x="-661.63" y="-993.05" width="2764.8" height="1555.2"/></g></g></g></g></g><g class="cls-54"><g class="cls-17"><g class="cls-53"><g class="cls-35"><g class="cls-27"><rect class="cls-48" x="-661.63" y="-993.05" width="2764.8" height="1555.2"/></g></g></g></g></g><g class="cls-61"><g class="cls-21"><g class="cls-25"><g class="cls-11"><g class="cls-66"><rect class="cls-30" x="-661.63" y="-993.05" width="2764.8" height="1555.2"/></g></g></g></g></g></g></svg>