<?xml version="1.0" encoding="UTF-8"?><svg id="Camada_2" xmlns="http://www.w3.org/2000/svg" xmlns:xlink="http://www.w3.org/1999/xlink" viewBox="0 0 309 243"><defs><style>.cls-1{fill:#fff;}.cls-2{fill:none;}.cls-3{clip-path:url(#clippath-1);}.cls-4{clip-path:url(#clippath-3);}.cls-5{fill:#e6007e;}.cls-6{clip-path:url(#clippath-2);}.cls-7{clip-path:url(#clippath);}</style><clipPath id="clippath"><rect class="cls-2" x="66.12" width="21.33" height="81.84"/></clipPath><clipPath id="clippath-1"><rect class="cls-2" x="4.79" y="157.84" width="62.67" height="85.16"/></clipPath><clipPath id="clippath-2"><rect class="cls-2" x="287.46" y="196.51" width="21.54" height="22.67"/></clipPath><clipPath id="clippath-3"><rect class="cls-2" y="16.51" width="63.46" height="66.67"/></clipPath></defs><g id="Camada_1-2"><path class="cls-1" d="M296.78,159.58c-1.41-.4-3.28-.86-5.36-.86-5.59,0-10.57,2.09-14.14,5.8v-4.45h-17.43v57.76h17.43v-30.79c0-1.33.45-4.24,2.14-6.76,2.14-3.19,5.61-4.8,10.32-4.8,1.84,0,3.73.38,6.02.95l2.48.62v-17.05l-1.45-.41h0Z"/><g class="cls-7"><path class="cls-1" d="M67.16.02h19.58v81.72h-19.58V.02Z"/></g><path class="cls-1" d="M140.52,32.28c-3.87-6.88-11.29-10.36-22.06-10.36-9.91,0-18.63,3.31-24.52,9.32l-1.4,1.42,9.92,9.92,1.42-1.33c3.47-3.26,8.24-5.11,13.11-5.11,3.06,0,10.07.76,10.42,7.63h-1.36c-6.91,0-15.76.34-22.88,2.95-8.83,3.25-13.31,9.29-13.31,17.96,0,5.67,2.4,10.44,6.94,13.8,3.93,2.91,9.21,4.52,14.88,4.52,6.33,0,11.77-1.99,15.75-5.68v4.32h16.25v-33.24c0-3.92,0-10.48-3.16-16.09ZM125.82,57.3h.81v1.04c0,6.92-3.93,10.43-11.68,10.43-2.59,0-7.49-1.07-7.49-5.11s6.17-6.36,18.35-6.36Z"/><path class="cls-1" d="M188.84,49.45c-3.96-2.58-8.89-3.66-13.23-4.61-5.54-1.22-8.91-2.11-8.91-4.27,0-2.97,3.87-3.76,5.91-3.76,3.84,0,6.69,1.49,9,4.7l1.32,1.83,12.08-10.88-1.08-1.47c-4.24-5.77-11.89-9.08-20.97-9.08-11.88,0-23.85,6.05-23.85,19.56s11.3,16.02,19.56,17.83c6.63,1.45,9.75,2.44,9.75,5.26s-4.11,4.21-7.04,4.21c-4.93,0-8.02-2.3-11.41-6.02l-1.38-1.51-11.97,11.22,1.31,1.46c5.43,6.09,12.84,9.05,22.67,9.05,6.53,0,12.54-1.48,16.92-4.18,5.57-3.42,8.52-8.7,8.52-15.27s-2.41-10.99-7.17-14.09h0Z"/><path class="cls-1" d="M41.55,89.7c-7.03,0-12.87,2.02-17.02,5.78v-4.43H5.12v57.76h20.18v-31.34c0-3.51,1.17-11.67,11.96-11.67,6.47,0,9.1,4,9.1,13.8v29.21h20.19v-35.94c0-14.5-9.35-23.16-25.01-23.16h0Z"/><path class="cls-1" d="M122.71,98.34c-5.72-5.36-13.56-8.31-22.07-8.31s-16.35,2.95-22.08,8.31c-5.9,5.53-9.16,13.31-9.16,21.92s3.25,16.38,9.16,21.91c5.72,5.36,13.56,8.31,22.08,8.31s16.35-2.95,22.07-8.31c5.9-5.53,9.16-13.31,9.16-21.91s-3.25-16.39-9.16-21.92ZM100.64,134.01c-7.59,0-13.76-6.17-13.76-13.76s6.17-13.75,13.76-13.75,13.75,6.17,13.75,13.75-6.17,13.76-13.75,13.76Z"/><g class="cls-3"><path class="cls-1" d="M59.56,167.53c-5.19-5.77-12.44-8.81-20.97-8.81-6.7,0-12.54,2.17-16.71,6.07v-4.73H5.12v83.3h17.43v-29.81c4.4,3.73,9.97,5.61,16.6,5.61,7.91,0,15.1-3.13,20.23-8.81,5-5.53,7.75-13.14,7.75-21.41s-2.69-15.99-7.57-21.42h0ZM37.41,203.38c-7.58,0-13.75-6.17-13.75-13.75s6.17-13.76,13.75-13.76,13.76,6.17,13.76,13.76-6.17,13.75-13.76,13.75Z"/></g><path class="cls-1" d="M178.07,129.15v35.19c-4.4-3.73-9.96-5.61-16.6-5.61-7.92,0-15.1,3.13-20.23,8.81-5,5.53-7.76,13.14-7.76,21.42s2.69,15.99,7.57,21.42c5.19,5.76,12.44,8.81,20.97,8.81,6.7,0,12.54-2.16,16.71-6.07v4.73h16.76v-88.68h-17.43ZM164.84,203.38c-7.58,0-13.75-6.17-13.75-13.75s6.17-13.76,13.75-13.76,13.76,6.17,13.76,13.76-6.17,13.75-13.76,13.75Z"/><g class="cls-6"><path class="cls-1" d="M298.22,196.66c5.89,0,10.68,4.79,10.68,10.69s-4.79,10.69-10.68,10.69-10.69-4.79-10.69-10.69,4.79-10.69,10.69-10.69Z"/></g><g class="cls-4"><path class="cls-1" d="M45.64,62c-.23-.18-.42-.39-.57-.62-3.63,3.88-7.61,5.63-12.7,5.63-6.54,0-11.44-3.66-13.05-9.51h43.96v-6.16c0-10.31-2.8-18.91-8.1-24.86-5.21-5.86-12.6-8.96-21.35-8.96-9.22,0-17.71,3.2-23.91,9C3.52,32.51,0,40.93,0,50.25s3.52,17.74,9.92,23.73c6.2,5.8,14.69,9,23.91,9,10.1,0,18.53-3.7,25.07-11l-13.26-9.98h0ZM31.76,32.76c6.99,0,11.52,3.51,12.46,9.51h-24.89c1.6-6.08,6.03-9.51,12.43-9.51Z"/></g><path class="cls-1" d="M240.24,199.03c-3.4,3.71-7.12,5.39-11.9,5.39-6.03,0-10.56-3.38-12.05-8.78h40.59v-5.69c0-9.53-2.58-17.46-7.47-22.96-4.82-5.41-11.64-8.27-19.72-8.27-8.51,0-16.35,2.95-22.07,8.31-5.91,5.53-9.16,13.31-9.16,21.91s3.25,16.39,9.16,21.92c5.72,5.36,13.56,8.31,22.07,8.31,9.47,0,17.33-3.52,23.41-10.45l-12.85-9.68ZM227.79,172.79c6.46,0,10.64,3.24,11.51,8.78h-22.98c1.48-5.61,5.57-8.78,11.47-8.78Z"/><path class="cls-5" d="M100.64,176.97c6.97,0,12.65,5.68,12.65,12.66s-5.68,12.65-12.65,12.65-12.66-5.67-12.66-12.65,5.68-12.66,12.66-12.66Z"/><path class="cls-5" d="M100.64,151.86c-20.08,0-36.4,16.33-36.4,36.4s16.32,36.4,36.4,36.4,36.4-16.33,36.4-36.4-16.32-36.4-36.4-36.4ZM123.66,169.53l-3.37,10.3c1.49,2.93,2.31,6.3,2.31,9.8,0,12.17-9.86,22.03-22.03,22.03s-22.03-9.86-22.03-22.03,9.86-22.03,22.03-22.03c3.99,0,7.73,1.06,10.98,2.93l10.86-2.37c.37-.06.74.06.99.31.25.31.38.69.25,1.06h0Z"/></g></svg>