<svg width="1440" height="815" viewBox="0 0 1440 815" fill="none" xmlns="http://www.w3.org/2000/svg">
<path d="M-14.9663 314.996C-15.1346 306.168 -11.7521 299.417 -7.1074 290.384C1.15542 274.314 6.47325 272.935 10.2092 264.741C18.674 246.199 8.87973 234.186 -2.24395 207.719C-12.0382 184.407 3.0907 155.5 34.9472 138.463C41.5944 134.945 48.4605 132.266 55.3265 130.444C104.954 116.323 110.861 112.71 142.044 70.8703C149.684 60.3312 160.068 50.8382 172.453 43.9284C187.952 35.2752 204.057 32.1532 218.109 34.4036C218.227 34.4195 218.345 34.4353 218.463 34.4512C218.513 34.4512 218.564 34.4511 218.597 34.467C293.232 47.7161 301.343 44.2136 359.671 7.74694C361.993 6.30476 364.417 5.00522 366.89 3.89584C378.704 -1.38161 391.662 -0.383204 399.74 1.58197C419.295 6.33643 435.601 24.229 437.789 42.3911C439.135 53.5482 434.44 59.0634 411.806 97.0674C394.691 125.8 385.907 140.254 383.719 147.401C378.452 164.612 378.368 184.058 380.656 220.129C383.298 255.771 368.523 288.688 344.155 296.58C341.951 297.309 339.712 297.832 337.457 298.165C278.44 307.088 268.073 316.058 244.328 368.357C240.037 378.024 232.447 384.839 221.643 387.612C206.464 391.479 187.969 386.978 171.006 377.66C117.508 349.276 107.933 351.336 65.8949 360.544C44.1692 365.805 14.1471 358.119 -3.64072 341.462C-5.79478 339.418 -14.7307 329.117 -15 314.996H-14.9663Z" fill="#040404"/>
<path d="M1075.03 740.996C1074.87 732.168 1078.25 725.417 1082.89 716.384C1091.16 700.314 1096.47 698.935 1100.21 690.741C1108.67 672.199 1098.88 660.186 1087.76 633.719C1077.96 610.407 1093.09 581.5 1124.95 564.463C1131.59 560.945 1138.46 558.266 1145.33 556.444C1194.95 542.323 1200.86 538.71 1232.04 496.87C1239.68 486.331 1250.07 476.838 1262.45 469.928C1277.95 461.275 1294.06 458.153 1308.11 460.404C1308.23 460.419 1308.34 460.435 1308.46 460.451C1308.51 460.451 1308.56 460.451 1308.6 460.467C1383.23 473.716 1391.34 470.214 1449.67 433.747C1451.99 432.305 1454.42 431.005 1456.89 429.896C1468.7 424.618 1481.66 425.617 1489.74 427.582C1509.29 432.336 1525.6 450.229 1527.79 468.391C1529.14 479.548 1524.44 485.063 1501.81 523.067C1484.69 551.8 1475.91 566.254 1473.72 573.401C1468.45 590.612 1468.37 610.058 1470.66 646.129C1473.3 681.771 1458.52 714.688 1434.16 722.58C1431.95 723.309 1429.71 723.832 1427.46 724.165C1368.44 733.088 1358.07 742.058 1334.33 794.357C1330.04 804.024 1322.45 810.839 1311.64 813.612C1296.46 817.479 1277.97 812.978 1261.01 803.66C1207.51 775.276 1197.93 777.336 1155.89 786.544C1134.17 791.805 1104.15 784.119 1086.36 767.462C1084.21 765.418 1075.27 755.117 1075 740.996H1075.03Z" fill="#040404"/>
</svg>
