<svg width="48" height="48" viewBox="0 0 48 48" fill="none" xmlns="http://www.w3.org/2000/svg">
<path d="M48 24C48 37.2551 37.2551 48 24 48C10.7449 48 0 37.2551 0 24C0 10.7449 10.7449 0 24 0C37.2551 0 48 10.7449 48 24Z" fill="#B80F66"/>
<g clip-path="url(#clip0_129_7286)">
<path fill-rule="evenodd" clip-rule="evenodd" d="M33.168 14.7787C30.7349 12.3433 27.5 11.0011 24.0539 11C16.9527 11 11.1731 16.7785 11.1699 23.883C11.1688 26.1537 11.7624 28.3702 12.8902 30.3245L11.0615 37L17.8909 35.2082C19.7726 36.2352 21.8916 36.7758 24.0474 36.7768H24.0529C31.153 36.7768 36.9337 30.9973 36.9369 23.8928C36.9391 20.451 35.6001 17.2129 33.168 14.7787ZM24.0539 34.6004H24.0496C22.1278 34.6004 20.2439 34.0837 18.5994 33.1076L18.2083 32.8758L14.1555 33.9385L15.2378 29.9865L14.9832 29.5813C13.9107 27.8762 13.3452 25.9056 13.3463 23.883C13.3484 17.9788 18.153 13.1753 24.0594 13.1753C26.9194 13.1753 29.6082 14.2912 31.6297 16.3148C33.6512 18.3396 34.7638 21.0295 34.7627 23.8906C34.7594 29.7969 29.9559 34.6004 24.0539 34.6004ZM29.9278 26.5805C29.606 26.4191 28.0233 25.6402 27.7275 25.5329C27.4329 25.4257 27.2184 25.3715 27.0028 25.6933C26.7872 26.015 26.1719 26.7408 25.9834 26.9564C25.7959 27.1709 25.6074 27.198 25.2857 27.0366C24.9639 26.8752 23.9261 26.5361 22.6965 25.4387C21.7399 24.585 21.0932 23.5309 20.9058 23.2081C20.7184 22.8853 20.8863 22.7119 21.0466 22.5516C21.1918 22.4075 21.3684 22.1757 21.5298 21.9872C21.6923 21.8008 21.7454 21.6665 21.8537 21.4509C21.9609 21.2364 21.9079 21.0479 21.8266 20.8865C21.7454 20.7262 21.1019 19.1413 20.8343 18.4967C20.5732 17.8683 20.3078 17.9539 20.1095 17.9442C19.9221 17.9344 19.7076 17.9333 19.492 17.9333C19.2775 17.9333 18.9287 18.0135 18.634 18.3363C18.3394 18.6592 17.5074 19.4381 17.5074 21.0219C17.5074 22.6068 18.6611 24.1376 18.8214 24.3521C18.9818 24.5666 21.091 27.8188 24.3204 29.213C25.0885 29.5445 25.6887 29.7428 26.1556 29.8912C26.9269 30.136 27.6289 30.1013 28.1836 30.019C28.8022 29.9269 30.0881 29.2401 30.3568 28.4883C30.6254 27.7364 30.6254 27.0907 30.5442 26.9575C30.464 26.8221 30.2495 26.7419 29.9278 26.5805Z" fill="white"/>
</g>
<defs>
<clipPath id="clip0_129_7286">
<rect width="26" height="26" fill="white" transform="translate(11 11)"/>
</clipPath>
</defs>
</svg>
