<svg width="48" height="48" viewBox="0 0 48 48" fill="none" xmlns="http://www.w3.org/2000/svg">
<path d="M48 24C48 37.2551 37.2551 48 24 48C10.7449 48 0 37.2551 0 24C0 10.7449 10.7449 0 24 0C37.2551 0 48 10.7449 48 24Z" fill="#B80F66"/>
<path d="M31.1115 22.1374L30.7117 25.3482C30.644 25.8845 30.1898 26.288 29.6511 26.288H24.4508V39.7122C23.9024 39.7617 23.3467 39.787 22.785 39.787C21.5287 39.787 20.3026 39.6614 19.1176 39.4222V26.288H15.118C14.7508 26.288 14.4512 25.9872 14.4512 25.6187V21.601C14.4512 21.2326 14.7508 20.9318 15.118 20.9318H19.1176V14.9064C19.1176 11.2088 22.1025 8.21185 25.7856 8.21185H30.452C30.8192 8.21185 31.1188 8.51264 31.1188 8.88107V12.8988C31.1188 13.2672 30.8192 13.568 30.452 13.568H27.118C25.6455 13.568 24.452 14.7663 24.452 16.2461V20.933H30.0521C30.6948 20.933 31.1913 21.4983 31.1127 22.1386L31.1115 22.1374Z" fill="white"/>
</svg>
