<svg width="48" height="48" viewBox="0 0 48 48" fill="none" xmlns="http://www.w3.org/2000/svg">
<path d="M48 24C48 37.2551 37.2551 48 24 48C10.7449 48 0 37.2551 0 24C0 10.7449 10.7449 0 24 0C37.2551 0 48 10.7449 48 24Z" fill="#B80F66"/>
<path d="M15.5004 17.5845C17.2076 17.5845 18.5916 16.2005 18.5916 14.4933C18.5916 12.7861 17.2076 11.4021 15.5004 11.4021C13.7932 11.4021 12.4092 12.7861 12.4092 14.4933C12.4092 16.2005 13.7932 17.5845 15.5004 17.5845Z" fill="white"/>
<path d="M17.8451 19.6442H13.1546C13.0271 19.6442 12.9238 19.7475 12.9238 19.8749V34.8682C12.9238 34.9957 13.0271 35.099 13.1546 35.099H17.8451C17.9725 35.099 18.0758 34.9957 18.0758 34.8682V19.8749C18.0758 19.7475 17.9725 19.6442 17.8451 19.6442Z" fill="white"/>
<path d="M35.5925 25.312V34.0698C35.5925 34.6364 35.1286 35.1002 34.5621 35.1002H31.4709C30.9044 35.1002 30.4405 34.6364 30.4405 34.0698V26.857C30.4405 25.4353 29.2869 24.2816 27.8651 24.2816C26.4433 24.2816 25.2897 25.4353 25.2897 26.857V34.0698C25.2897 34.6364 24.8258 35.1002 24.2593 35.1002H21.1681C20.6016 35.1002 20.1377 34.6364 20.1377 34.0698V20.6746C20.1377 20.1081 20.6016 19.6442 21.1681 19.6442H24.2593C24.8258 19.6442 25.2897 20.1081 25.2897 20.6746V21.3342C26.3201 19.9994 28.0258 19.1296 29.9259 19.1296C32.7695 19.1296 35.5925 21.1904 35.5925 25.312Z" fill="white"/>
</svg>
