<svg width="1440" height="1137" viewBox="0 0 1440 1137" fill="none" xmlns="http://www.w3.org/2000/svg">
<path d="M1484.98 309.653C1461.55 326.59 1428.35 323.186 1409.83 303.23C1402.05 294.566 1398.51 283.897 1399.03 272.752C1400.55 240.375 1394.82 211.498 1378.7 188.663C1362.73 165.733 1336.38 148.82 1300.57 138.391C1291.79 136.007 1283.94 131.432 1277.64 124.603C1257.15 101.653 1259.17 62.9405 1279.82 39.0232C1300.41 15.1889 1339.36 11.993 1366.95 33.1929C1372.83 37.8989 1377.5 43.451 1380.84 49.5486C1399.11 81.6853 1409 86.2092 1444.94 84.3472C1460.08 83.635 1475.24 88.62 1485.92 99.7049C1501.07 115.348 1502.66 138.71 1492.77 158.1C1475.15 193.963 1476.7 205.041 1498.82 233.561C1499.07 233.883 1499.31 234.219 1499.55 234.542C1516.22 258.154 1508.42 292.726 1484.98 309.653Z" fill="#040404"/>
<path d="M508 1048.9C561.794 1001.2 571.495 918.76 533.071 863.022C516.254 839.439 492.271 825.077 464.932 820.316C385.518 806.482 318.52 776.952 271.818 725.448C224.796 674.292 198.001 601.171 192.061 508.603C191.027 486.004 184.172 464.459 171.004 445.469C126.378 383.326 31.3157 367.274 -37.9168 404.462C-106.912 441.535 -135.749 534.362 -99.2143 612.793C-90.9769 629.632 -80.0263 643.971 -67.0324 655.378C1.09501 717.098 6.7213 743.568 -17.2434 829.788C-27.1667 866.161 -23.2695 905.658 -2.14066 937.58C27.6294 982.836 83.4801 999.339 135.904 985.804C232.491 962.448 258.541 972.211 315.803 1041.33C316.449 1042.12 317.134 1042.88 317.79 1043.64C366.085 1096.88 454.226 1096.65 508 1048.9Z" fill="#040404"/>
</svg>
