<?xml version="1.0" encoding="UTF-8"?><svg id="Camada_2" xmlns="http://www.w3.org/2000/svg" viewBox="0 0 1100 907.48"><defs><style>.cls-1{fill:#e55399;}</style></defs><g id="Camada_1-2"><path class="cls-1" d="M1099.17,433.62c-8.14-112.92-74.73-207.73-168.21-257.22-65.01-34.41-126.07-75.6-183.85-121.05C698.25,16.93,635.34-4.15,568.32.68c-45.45,3.28-87.32,18.06-122.92,41.28-57.31,37.37-121.43,62.91-188.47,76.86C140.92,142.96-15.14,218.53,1.18,445.04c5.77,80.06,37.53,151.68,88.92,205.31,43.5,45.4,80.5,39.34,112.77,93.21,75.31,125.68,217.46,173.62,374.16,162.33,127.46-9.19,236.73-44.77,303.5-142.34,31.35-45.86,67.57-31.23,109.63-67.61,73.11-63.25,116.48-158.77,109.01-262.31Z"/></g></svg>