<svg width="1440" height="874" viewBox="0 0 1440 874" fill="none" xmlns="http://www.w3.org/2000/svg">
<path d="M-120.874 707.729C-121.503 687.895 -108.876 672.727 -91.5378 652.43C-60.6936 616.324 -40.8427 613.226 -26.8968 594.817C4.70121 553.156 -31.8596 526.166 -73.383 466.701C-109.944 414.323 -53.4694 349.375 65.4473 311.097C90.2609 303.192 115.891 297.174 141.521 293.079C326.775 261.353 348.825 253.234 465.229 159.23C493.749 135.551 532.508 114.223 578.743 98.6976C636.599 79.2559 696.717 72.2413 749.171 77.2976C749.611 77.3332 750.051 77.3688 750.491 77.4044C750.679 77.4044 750.867 77.4044 750.993 77.44C1029.6 107.208 1059.88 99.3386 1277.61 17.4057C1286.28 14.1654 1295.32 11.2457 1304.56 8.75313C1348.65 -3.10417 1397.03 -0.860979 1427.18 3.55435C1500.17 14.2366 1561.05 54.4375 1569.21 95.2437C1574.24 120.311 1556.71 132.703 1472.22 218.09C1408.33 282.646 1375.54 315.12 1367.37 331.179C1347.71 369.849 1347.4 413.539 1355.94 494.582C1365.8 574.663 1310.65 648.62 1219.69 666.353C1211.46 667.991 1203.1 669.166 1194.69 669.914C974.378 689.961 935.682 710.114 847.044 827.619C831.025 849.34 802.693 864.651 762.363 870.882C705.7 879.571 636.662 869.458 573.341 848.521C373.638 784.748 337.894 789.377 180.972 810.065C99.8723 821.886 -12.1972 804.617 -78.597 767.193C-86.6379 762.6 -119.995 739.455 -121 707.729H-120.874Z" fill="#8801E4"/>
</svg>
