<svg width="1440" height="1399" viewBox="0 0 1440 1399" fill="none" xmlns="http://www.w3.org/2000/svg">
<path d="M1564.88 668.247C1552.34 494.227 1449.72 348.107 1305.65 271.848C1205.47 218.82 1111.36 155.347 1022.32 85.3029C947.016 26.0884 850.064 -6.39238 746.779 1.052C676.737 6.10031 612.211 28.8814 557.345 64.6688C469.022 122.253 370.21 161.627 266.886 183.125C88.1227 220.311 -152.391 336.771 -127.23 685.852C-118.338 809.231 -69.3996 919.611 9.79999 1002.25C76.8412 1072.21 133.862 1062.87 183.596 1145.89C299.662 1339.58 518.72 1413.45 760.208 1396.05C956.639 1381.89 1125.03 1327.06 1227.93 1176.69C1276.25 1106.02 1332.06 1128.56 1396.88 1072.49C1509.55 975.012 1576.38 827.803 1564.88 668.247Z" fill="#E55399"/>
</svg>
