<svg width="1440" height="1162" viewBox="0 0 1440 1162" fill="none" xmlns="http://www.w3.org/2000/svg">
<mask id="mask0_513_412" style="mask-type:alpha" maskUnits="userSpaceOnUse" x="0" y="0" width="22" height="1162">
<rect x="0.5" y="0.5" width="21" height="1161" fill="#D9D9D9" stroke="#B80F66"/>
</mask>
<g mask="url(#mask0_513_412)">
<circle cx="-0.5" cy="24.5" r="18" stroke="#B80F66" stroke-width="9"/>
<circle cy="25" r="7.5" fill="#B80F66" stroke="#B80F66"/>
<circle cx="-0.5" cy="737.5" r="18" stroke="#B80F66" stroke-width="9"/>
<circle cy="738" r="7.5" fill="#B80F66" stroke="#B80F66"/>
<circle cx="-0.5" cy="381.5" r="18" stroke="#B80F66" stroke-width="9"/>
<circle cy="382" r="7.5" fill="#B80F66" stroke="#B80F66"/>
<circle cx="-0.5" cy="1094.5" r="18" stroke="#B80F66" stroke-width="9"/>
<circle cy="1095" r="7.5" fill="#B80F66" stroke="#B80F66"/>
<circle cx="-0.5" cy="202.5" r="18" stroke="#B80F66" stroke-width="9"/>
<circle cy="203" r="7.5" fill="#B80F66" stroke="#B80F66"/>
<circle cx="-0.5" cy="915.5" r="18" stroke="#B80F66" stroke-width="9"/>
<circle cy="916" r="7.5" fill="#B80F66" stroke="#B80F66"/>
<circle cx="-0.5" cy="559.5" r="18" stroke="#B80F66" stroke-width="9"/>
<circle cy="560" r="7.5" fill="#B80F66" stroke="#B80F66"/>
<circle cx="-0.5" cy="113.5" r="18" stroke="#B80F66" stroke-width="9"/>
<circle cy="114" r="7.5" fill="#B80F66" stroke="#B80F66"/>
<circle cx="-0.5" cy="826.5" r="18" stroke="#B80F66" stroke-width="9"/>
<circle cy="827" r="7.5" fill="#B80F66" stroke="#B80F66"/>
<circle cx="-0.5" cy="470.5" r="18" stroke="#B80F66" stroke-width="9"/>
<circle cy="471" r="7.5" fill="#B80F66" stroke="#B80F66"/>
<circle cx="-0.5" cy="291.5" r="18" stroke="#B80F66" stroke-width="9"/>
<circle cy="292" r="7.5" fill="#B80F66" stroke="#B80F66"/>
<circle cx="-0.5" cy="1004.5" r="18" stroke="#B80F66" stroke-width="9"/>
<circle cy="1005" r="7.5" fill="#B80F66" stroke="#B80F66"/>
<circle cx="-0.5" cy="648.5" r="18" stroke="#B80F66" stroke-width="9"/>
<circle cy="649" r="7.5" fill="#B80F66" stroke="#B80F66"/>
<circle cx="-0.5" cy="69.5" r="18" stroke="#B80F66" stroke-width="9"/>
<circle cy="70" r="7.5" fill="#B80F66" stroke="#B80F66"/>
<circle cx="-0.5" cy="782.5" r="18" stroke="#B80F66" stroke-width="9"/>
<circle cy="783" r="7.5" fill="#B80F66" stroke="#B80F66"/>
<circle cx="-0.5" cy="426.5" r="18" stroke="#B80F66" stroke-width="9"/>
<circle cy="427" r="7.5" fill="#B80F66" stroke="#B80F66"/>
<circle cx="-0.5" cy="1139.5" r="18" stroke="#B80F66" stroke-width="9"/>
<circle cy="1140" r="7.5" fill="#B80F66" stroke="#B80F66"/>
<circle cx="-0.5" cy="247.5" r="18" stroke="#B80F66" stroke-width="9"/>
<circle cy="248" r="7.5" fill="#B80F66" stroke="#B80F66"/>
<circle cx="-0.5" cy="960.5" r="18" stroke="#B80F66" stroke-width="9"/>
<circle cy="961" r="7.5" fill="#B80F66" stroke="#B80F66"/>
<circle cx="-0.5" cy="604.5" r="18" stroke="#B80F66" stroke-width="9"/>
<circle cy="605" r="7.5" fill="#B80F66" stroke="#B80F66"/>
<circle cx="-0.5" cy="158.5" r="18" stroke="#B80F66" stroke-width="9"/>
<circle cy="159" r="7.5" fill="#B80F66" stroke="#B80F66"/>
<circle cx="-0.5" cy="871.5" r="18" stroke="#B80F66" stroke-width="9"/>
<circle cy="872" r="7.5" fill="#B80F66" stroke="#B80F66"/>
<circle cx="-0.5" cy="515.5" r="18" stroke="#B80F66" stroke-width="9"/>
<circle cy="516" r="7.5" fill="#B80F66" stroke="#B80F66"/>
<circle cx="-0.5" cy="336.5" r="18" stroke="#B80F66" stroke-width="9"/>
<circle cy="337" r="7.5" fill="#B80F66" stroke="#B80F66"/>
<circle cx="-0.5" cy="1049.5" r="18" stroke="#B80F66" stroke-width="9"/>
<circle cy="1050" r="7.5" fill="#B80F66" stroke="#B80F66"/>
<circle cx="-0.5" cy="693.5" r="18" stroke="#B80F66" stroke-width="9"/>
<circle cy="694" r="7.5" fill="#B80F66" stroke="#B80F66"/>
</g>
<mask id="mask1_513_412" style="mask-type:alpha" maskUnits="userSpaceOnUse" x="1418" y="0" width="22" height="1162">
<rect x="-0.5" y="0.5" width="21" height="1161" transform="matrix(-1 0 0 1 1439 0)" fill="#D9D9D9" stroke="#B80F66"/>
</mask>
<g mask="url(#mask1_513_412)">
<circle cx="22.5" cy="22.5" r="18" transform="matrix(-1 0 0 1 1463 2)" stroke="#B80F66" stroke-width="9"/>
<circle cx="8" cy="8" r="7.5" transform="matrix(-1 0 0 1 1448 17)" fill="#B80F66" stroke="#B80F66"/>
<circle cx="22.5" cy="22.5" r="18" transform="matrix(-1 0 0 1 1463 715)" stroke="#B80F66" stroke-width="9"/>
<circle cx="8" cy="8" r="7.5" transform="matrix(-1 0 0 1 1448 730)" fill="#B80F66" stroke="#B80F66"/>
<circle cx="22.5" cy="22.5" r="18" transform="matrix(-1 0 0 1 1463 359)" stroke="#B80F66" stroke-width="9"/>
<circle cx="8" cy="8" r="7.5" transform="matrix(-1 0 0 1 1448 374)" fill="#B80F66" stroke="#B80F66"/>
<circle cx="22.5" cy="22.5" r="18" transform="matrix(-1 0 0 1 1463 1072)" stroke="#B80F66" stroke-width="9"/>
<circle cx="8" cy="8" r="7.5" transform="matrix(-1 0 0 1 1448 1087)" fill="#B80F66" stroke="#B80F66"/>
<circle cx="22.5" cy="22.5" r="18" transform="matrix(-1 0 0 1 1463 180)" stroke="#B80F66" stroke-width="9"/>
<circle cx="8" cy="8" r="7.5" transform="matrix(-1 0 0 1 1448 195)" fill="#B80F66" stroke="#B80F66"/>
<circle cx="22.5" cy="22.5" r="18" transform="matrix(-1 0 0 1 1463 893)" stroke="#B80F66" stroke-width="9"/>
<circle cx="8" cy="8" r="7.5" transform="matrix(-1 0 0 1 1448 908)" fill="#B80F66" stroke="#B80F66"/>
<circle cx="22.5" cy="22.5" r="18" transform="matrix(-1 0 0 1 1463 537)" stroke="#B80F66" stroke-width="9"/>
<circle cx="8" cy="8" r="7.5" transform="matrix(-1 0 0 1 1448 552)" fill="#B80F66" stroke="#B80F66"/>
<circle cx="22.5" cy="22.5" r="18" transform="matrix(-1 0 0 1 1463 91)" stroke="#B80F66" stroke-width="9"/>
<circle cx="8" cy="8" r="7.5" transform="matrix(-1 0 0 1 1448 106)" fill="#B80F66" stroke="#B80F66"/>
<circle cx="22.5" cy="22.5" r="18" transform="matrix(-1 0 0 1 1463 804)" stroke="#B80F66" stroke-width="9"/>
<circle cx="8" cy="8" r="7.5" transform="matrix(-1 0 0 1 1448 819)" fill="#B80F66" stroke="#B80F66"/>
<circle cx="22.5" cy="22.5" r="18" transform="matrix(-1 0 0 1 1463 448)" stroke="#B80F66" stroke-width="9"/>
<circle cx="8" cy="8" r="7.5" transform="matrix(-1 0 0 1 1448 463)" fill="#B80F66" stroke="#B80F66"/>
<circle cx="22.5" cy="22.5" r="18" transform="matrix(-1 0 0 1 1463 269)" stroke="#B80F66" stroke-width="9"/>
<circle cx="8" cy="8" r="7.5" transform="matrix(-1 0 0 1 1448 284)" fill="#B80F66" stroke="#B80F66"/>
<circle cx="22.5" cy="22.5" r="18" transform="matrix(-1 0 0 1 1463 982)" stroke="#B80F66" stroke-width="9"/>
<circle cx="8" cy="8" r="7.5" transform="matrix(-1 0 0 1 1448 997)" fill="#B80F66" stroke="#B80F66"/>
<circle cx="22.5" cy="22.5" r="18" transform="matrix(-1 0 0 1 1463 626)" stroke="#B80F66" stroke-width="9"/>
<circle cx="8" cy="8" r="7.5" transform="matrix(-1 0 0 1 1448 641)" fill="#B80F66" stroke="#B80F66"/>
<circle cx="22.5" cy="22.5" r="18" transform="matrix(-1 0 0 1 1463 47)" stroke="#B80F66" stroke-width="9"/>
<circle cx="8" cy="8" r="7.5" transform="matrix(-1 0 0 1 1448 62)" fill="#B80F66" stroke="#B80F66"/>
<circle cx="22.5" cy="22.5" r="18" transform="matrix(-1 0 0 1 1463 760)" stroke="#B80F66" stroke-width="9"/>
<circle cx="8" cy="8" r="7.5" transform="matrix(-1 0 0 1 1448 775)" fill="#B80F66" stroke="#B80F66"/>
<circle cx="22.5" cy="22.5" r="18" transform="matrix(-1 0 0 1 1463 404)" stroke="#B80F66" stroke-width="9"/>
<circle cx="8" cy="8" r="7.5" transform="matrix(-1 0 0 1 1448 419)" fill="#B80F66" stroke="#B80F66"/>
<circle cx="22.5" cy="22.5" r="18" transform="matrix(-1 0 0 1 1463 1117)" stroke="#B80F66" stroke-width="9"/>
<circle cx="8" cy="8" r="7.5" transform="matrix(-1 0 0 1 1448 1132)" fill="#B80F66" stroke="#B80F66"/>
<circle cx="22.5" cy="22.5" r="18" transform="matrix(-1 0 0 1 1463 225)" stroke="#B80F66" stroke-width="9"/>
<circle cx="8" cy="8" r="7.5" transform="matrix(-1 0 0 1 1448 240)" fill="#B80F66" stroke="#B80F66"/>
<circle cx="22.5" cy="22.5" r="18" transform="matrix(-1 0 0 1 1463 938)" stroke="#B80F66" stroke-width="9"/>
<circle cx="8" cy="8" r="7.5" transform="matrix(-1 0 0 1 1448 953)" fill="#B80F66" stroke="#B80F66"/>
<circle cx="22.5" cy="22.5" r="18" transform="matrix(-1 0 0 1 1463 582)" stroke="#B80F66" stroke-width="9"/>
<circle cx="8" cy="8" r="7.5" transform="matrix(-1 0 0 1 1448 597)" fill="#B80F66" stroke="#B80F66"/>
<circle cx="22.5" cy="22.5" r="18" transform="matrix(-1 0 0 1 1463 136)" stroke="#B80F66" stroke-width="9"/>
<circle cx="8" cy="8" r="7.5" transform="matrix(-1 0 0 1 1448 151)" fill="#B80F66" stroke="#B80F66"/>
<circle cx="22.5" cy="22.5" r="18" transform="matrix(-1 0 0 1 1463 849)" stroke="#B80F66" stroke-width="9"/>
<circle cx="8" cy="8" r="7.5" transform="matrix(-1 0 0 1 1448 864)" fill="#B80F66" stroke="#B80F66"/>
<circle cx="22.5" cy="22.5" r="18" transform="matrix(-1 0 0 1 1463 493)" stroke="#B80F66" stroke-width="9"/>
<circle cx="8" cy="8" r="7.5" transform="matrix(-1 0 0 1 1448 508)" fill="#B80F66" stroke="#B80F66"/>
<circle cx="22.5" cy="22.5" r="18" transform="matrix(-1 0 0 1 1463 314)" stroke="#B80F66" stroke-width="9"/>
<circle cx="8" cy="8" r="7.5" transform="matrix(-1 0 0 1 1448 329)" fill="#B80F66" stroke="#B80F66"/>
<circle cx="22.5" cy="22.5" r="18" transform="matrix(-1 0 0 1 1463 1027)" stroke="#B80F66" stroke-width="9"/>
<circle cx="8" cy="8" r="7.5" transform="matrix(-1 0 0 1 1448 1042)" fill="#B80F66" stroke="#B80F66"/>
<circle cx="22.5" cy="22.5" r="18" transform="matrix(-1 0 0 1 1463 671)" stroke="#B80F66" stroke-width="9"/>
<circle cx="8" cy="8" r="7.5" transform="matrix(-1 0 0 1 1448 686)" fill="#B80F66" stroke="#B80F66"/>
</g>
</svg>
