<svg width="672" height="791" viewBox="0 0 672 791" fill="none" xmlns="http://www.w3.org/2000/svg">
<path d="M21.0553 661.023C46.3223 632.25 51.0397 624.286 47.1785 565.493C45.0134 539.392 58.0097 516.667 80.2163 509.761C84.8821 508.318 89.6226 507.713 94.3077 507.845C128.426 507.805 133.755 504.722 156.674 475.479C162.279 468.077 169.619 462.285 178.307 459.012C189.182 454.923 200.437 455.431 210.568 459.537C210.647 459.564 210.743 459.606 210.822 459.633C210.853 459.631 210.886 459.661 210.933 459.674C265.227 481.511 273.407 476.253 313.227 455.973C314.822 455.157 316.485 454.447 318.218 453.874C338.536 447.237 361.258 460.186 369.289 479.73C374.207 491.857 372.366 504.163 365.443 514.113C345.127 543.626 341.79 551.737 351.513 592.479C357.013 613.122 344.519 638.315 320.538 653.392C318.391 654.704 316.222 655.877 314.03 656.91C256.121 684.413 248.309 689.84 216.509 749.298C210.536 760.415 201.272 770.299 189.566 776.426C173.066 785.111 155.552 783.883 142.231 774.5C121.402 759.862 109.516 751.387 97.931 747.809C86.3992 744.056 75.1994 745.199 56.8764 745.806C37.7805 746.844 19.3788 727.9 13.5077 703.706C9.2057 686.011 12.4473 670.342 21.0537 660.992L21.0553 661.023Z" fill="#DBDBDB"/>
<path d="M426.697 183.286C438.463 161.696 440.293 156.041 429.574 119.758C424.533 103.713 429.466 87.6433 442.401 80.182C445.12 78.6194 448.004 77.5714 450.957 76.9922C472.324 72.1509 475.227 69.467 485.455 47.913C487.921 42.4853 491.701 37.8207 496.681 34.5437C502.916 30.4472 510.038 29.1764 516.964 30.3181C517.017 30.3239 517.083 30.3365 517.137 30.3423C517.156 30.3369 517.181 30.3507 517.212 30.3522C554.306 36.3664 558.687 31.9176 580.768 13.5921C581.652 12.856 582.593 12.1764 583.597 11.5727C595.388 4.54681 611.449 9.45063 619.24 20.5593C624.032 27.4614 624.616 35.4298 621.685 42.6397C613.125 63.9956 612.179 69.5473 624.022 93.696C630.382 105.85 626.112 123.395 613.219 136.225C612.059 137.35 610.866 138.391 609.639 139.348C577.247 164.752 573.12 169.254 561.594 210.989C559.422 218.795 555.014 226.295 548.547 231.786C539.437 239.555 528.293 241.259 518.624 237.262C503.509 231.033 494.867 227.403 487.105 226.797C479.352 226.074 472.497 228.371 461.106 231.338C449.29 234.684 435.089 225.416 427.995 211.089C422.802 200.612 422.621 190.34 426.692 183.267L426.697 183.286Z" fill="#DBDBDB"/>
</svg>
