<?xml version="1.0" encoding="UTF-8"?><svg id="Camada_2" xmlns="http://www.w3.org/2000/svg" viewBox="0 0 48 48"><defs><style>.cls-1{fill:#fff;}.cls-2{fill:#b80f66;}</style></defs><g id="Camada_1-2"><path class="cls-2" d="M48,24c0,13.26-10.74,24-24,24S0,37.26,0,24,10.74,0,24,0s24,10.74,24,24Z"/><path class="cls-1" d="M31.93,22.79c-.14-.07-.29-.13-.43-.2-.26-4.71-2.83-7.41-7.15-7.44-.02,0-.04,0-.06,0-2.59,0-4.74,1.1-6.06,3.11l2.38,1.63c.99-1.5,2.54-1.82,3.68-1.82.01,0,.03,0,.04,0,1.42,0,2.5.42,3.19,1.23.51.59.84,1.4,1.01,2.42-1.26-.21-2.63-.28-4.09-.2-4.11.24-6.75,2.63-6.58,5.97.09,1.69.93,3.14,2.37,4.09,1.22.8,2.78,1.2,4.41,1.11,2.15-.12,3.84-.94,5.01-2.44.89-1.14,1.46-2.62,1.71-4.48,1.02.62,1.78,1.43,2.2,2.41.71,1.66.75,4.4-1.47,6.62-1.95,1.95-4.3,2.8-7.85,2.82-3.94-.03-6.91-1.29-8.85-3.75-1.81-2.3-2.75-5.63-2.78-9.89.03-4.26.97-7.59,2.78-9.89,1.94-2.46,4.91-3.72,8.85-3.75,3.97.03,6.99,1.3,9,3.77.99,1.21,1.73,2.74,2.22,4.52l2.79-.74c-.59-2.19-1.53-4.07-2.8-5.64-2.58-3.17-6.34-4.79-11.2-4.83h-.02c-4.85.03-8.57,1.66-11.07,4.85-2.23,2.83-3.38,6.77-3.42,11.71h0s0,.02,0,.02c.04,4.94,1.19,8.88,3.42,11.71,2.5,3.18,6.23,4.81,11.07,4.85h.02c4.31-.03,7.34-1.16,9.85-3.66,3.27-3.27,3.17-7.37,2.1-9.88-.77-1.8-2.25-3.27-4.27-4.24ZM24.49,29.78c-1.8.1-3.67-.71-3.77-2.44-.07-1.28.91-2.72,3.88-2.89.34-.02.67-.03,1-.03,1.08,0,2.08.1,3,.3-.34,4.26-2.34,4.96-4.11,5.05Z"/></g></svg>