<svg width="14" height="14" viewBox="0 0 14 14" fill="none" xmlns="http://www.w3.org/2000/svg">
<path d="M13.4914 7.3151C13.381 8.59764 12.9067 9.82199 12.1242 10.8441C11.3416 11.8662 10.2835 12.6436 9.07415 13.0847C7.86482 13.5259 6.55466 13.6125 5.29779 13.3343C4.04093 13.0562 2.88965 12.4248 1.97941 11.5146C1.06917 10.6043 0.437828 9.45305 0.159666 8.19619C-0.118496 6.93933 -0.0319076 5.62916 0.409244 4.41984C0.850396 3.21051 1.62776 2.15234 2.64988 1.3698C3.67199 0.587271 4.89634 0.112935 6.17888 0.00260156C6.37779 -0.0139745 6.57514 0.049146 6.72752 0.178077C6.87989 0.307009 6.97481 0.491189 6.99138 0.690102C7.00796 0.889014 6.94484 1.08636 6.81591 1.23874C6.68697 1.39111 6.50279 1.48603 6.30388 1.5026C5.30599 1.58818 4.3533 1.95701 3.55792 2.5657C2.76255 3.17439 2.15758 3.9976 1.81422 4.93846C1.47086 5.87933 1.40339 6.89869 1.61974 7.8766C1.8361 8.85451 2.32729 9.75028 3.0355 10.4585C3.7437 11.1667 4.63947 11.6579 5.61738 11.8742C6.59529 12.0906 7.61466 12.0231 8.55552 11.6798C9.49638 11.3364 10.3196 10.7314 10.9283 9.93606C11.537 9.14069 11.9058 8.188 11.9914 7.1901C11.9996 7.09161 12.0271 6.9957 12.0724 6.90785C12.1177 6.81999 12.1798 6.74192 12.2552 6.67808C12.3307 6.61424 12.418 6.56588 12.5121 6.53577C12.6062 6.50567 12.7054 6.49439 12.8039 6.5026C12.9024 6.51081 12.9983 6.53834 13.0861 6.58361C13.174 6.62888 13.2521 6.69102 13.3159 6.76647C13.3797 6.84191 13.4281 6.9292 13.4582 7.02333C13.4883 7.11747 13.4996 7.21661 13.4914 7.3151ZM5.99138 3.5026V6.7526C5.99138 6.95151 6.0704 7.14228 6.21105 7.28293C6.3517 7.42358 6.54247 7.5026 6.74138 7.5026H9.99138C10.1903 7.5026 10.3811 7.42358 10.5217 7.28293C10.6624 7.14228 10.7414 6.95151 10.7414 6.7526C10.7414 6.55369 10.6624 6.36292 10.5217 6.22227C10.3811 6.08162 10.1903 6.0026 9.99138 6.0026H7.49138V3.5026C7.49138 3.30369 7.41236 3.11292 7.27171 2.97227C7.13106 2.83162 6.94029 2.7526 6.74138 2.7526C6.54247 2.7526 6.3517 2.83162 6.21105 2.97227C6.0704 3.11292 5.99138 3.30369 5.99138 3.5026ZM11.7414 4.7526C11.9392 4.7526 12.1325 4.69395 12.297 4.58407C12.4614 4.47419 12.5896 4.31801 12.6653 4.13528C12.7409 3.95256 12.7608 3.75149 12.7222 3.55751C12.6836 3.36353 12.5883 3.18535 12.4485 3.0455C12.3086 2.90564 12.1305 2.8104 11.9365 2.77182C11.7425 2.73323 11.5414 2.75303 11.3587 2.82872C11.176 2.90441 11.0198 3.03258 10.9099 3.19703C10.8 3.36148 10.7414 3.55482 10.7414 3.7526C10.7414 4.01782 10.8467 4.27217 11.0343 4.45971C11.2218 4.64724 11.4762 4.7526 11.7414 4.7526ZM9.74138 2.7526C9.93916 2.7526 10.1325 2.69395 10.297 2.58407C10.4614 2.47419 10.5896 2.31801 10.6653 2.13529C10.7409 1.95256 10.7608 1.75149 10.7222 1.55751C10.6836 1.36353 10.5883 1.18535 10.4485 1.04549C10.3086 0.905642 10.1305 0.810401 9.93647 0.771816C9.74249 0.733231 9.54142 0.753034 9.3587 0.828722C9.17597 0.90441 9.01979 1.03258 8.90991 1.19703C8.80003 1.36148 8.74138 1.55482 8.74138 1.7526C8.74138 2.01782 8.84674 2.27217 9.03428 2.45971C9.22181 2.64724 9.47616 2.7526 9.74138 2.7526Z" fill="#68686E"/>
</svg>
