<svg width="26" height="26" viewBox="0 0 26 26" fill="none" xmlns="http://www.w3.org/2000/svg">
<g clip-path="url(#clip0_321_734)">
<path fill-rule="evenodd" clip-rule="evenodd" d="M22.1683 3.77867C19.7351 1.34333 16.5003 0.00108333 13.0542 0C5.95293 0 0.173351 5.7785 0.170101 12.883C0.169018 15.1537 0.762684 17.3702 1.89043 19.3245L0.0617676 26L6.8911 24.2082C8.77285 25.2352 10.8918 25.7758 13.0477 25.7768H13.0531C20.1533 25.7768 25.9339 19.9973 25.9372 12.8928C25.9394 9.451 24.6003 6.21292 22.1683 3.77867ZM13.0542 23.6004H13.0498C11.128 23.6004 9.2441 23.0837 7.5996 22.1076L7.20852 21.8758L3.15577 22.9385L4.23802 18.9865L3.98343 18.5813C2.91093 16.8762 2.34543 14.9056 2.34652 12.883C2.34868 6.97883 7.15327 2.17533 13.0596 2.17533C15.9196 2.17533 18.6084 3.29117 20.6299 5.31483C22.6514 7.33958 23.764 10.0295 23.7629 12.8906C23.7597 18.7969 18.9562 23.6004 13.0542 23.6004ZM18.928 15.5805C18.6063 15.4191 17.0235 14.6402 16.7278 14.5329C16.4331 14.4257 16.2186 14.3715 16.003 14.6933C15.7874 15.015 15.1721 15.7408 14.9836 15.9564C14.7962 16.1709 14.6077 16.198 14.2859 16.0366C13.9642 15.8752 12.9263 15.5361 11.6968 14.4387C10.7402 13.585 10.0934 12.5309 9.90602 12.2081C9.7186 11.8853 9.88652 11.7119 10.0469 11.5516C10.192 11.4075 10.3686 11.1757 10.53 10.9872C10.6925 10.8008 10.7456 10.6665 10.8539 10.4509C10.9612 10.2364 10.9081 10.0479 10.8269 9.8865C10.7456 9.72617 10.1021 8.14125 9.83452 7.49667C9.57343 6.86833 9.30802 6.95392 9.10977 6.94417C8.92235 6.93442 8.70785 6.93333 8.49227 6.93333C8.27777 6.93333 7.92893 7.0135 7.63427 7.33633C7.3396 7.65917 6.5076 8.43808 6.5076 10.0219C6.5076 11.6068 7.66135 13.1376 7.82168 13.3521C7.98202 13.5666 10.0913 16.8188 13.3207 18.213C14.0888 18.5445 14.6889 18.7428 15.1558 18.8912C15.9272 19.136 16.6292 19.1013 17.1838 19.019C17.8024 18.9269 19.0884 18.2401 19.357 17.4883C19.6257 16.7364 19.6257 16.0907 19.5444 15.9575C19.4643 15.8221 19.2498 15.7419 18.928 15.5805Z" fill="white"/>
</g>
<defs>
<clipPath id="clip0_321_734">
<rect width="26" height="26" fill="white"/>
</clipPath>
</defs>
</svg>
